# xmcd
#
# Track frame offsets:
#	150
#	3127
#	22800
#	42324
#
# Disc length: 602 seconds
#
# Revision: 1
# Processed by: cddbd v1.5.1PL0 Copyright (c) Steve Scherf et al.
# Submitted via: CDex 1.50Beta5
#
DISCID=1d025804
DTITLE=Mask - 東京トリックシアター
DYEAR=1900
DGENRE=Rock
TTITLE0=SE
TTITLE1=東京トリックシアター
TTITLE2=ータアシクッリト京東
TTITLE3=ES
EXTD=
EXTT0=
EXTT1=
EXTT2=
EXTT3=
PLAYORDER=
